<svg width="327" height="327" viewBox="0 0 327 327" fill="none" xmlns="http://www.w3.org/2000/svg">
<path d="M293.668 262.301L292.05 261.064C313.58 232.795 324.963 199.024 324.963 163.388C324.963 108.183 297.19 57.3944 250.665 27.5264L251.769 25.8131C298.884 56.0427 327 107.479 327 163.388C327 199.462 315.464 233.67 293.668 262.301Z" fill="black"/>
<path d="M163.65 326.739C73.57 326.739 0.280273 253.449 0.280273 163.369C0.280273 73.2897 73.57 0 163.65 0V2.03687C74.6932 2.03687 2.3362 74.4128 2.3362 163.35C2.3362 252.307 74.7122 324.664 163.65 324.664C190.529 324.664 217.142 317.925 240.594 305.171L241.565 306.96C217.808 319.924 190.853 326.739 163.65 326.739Z" fill="black"/>
<path d="M86.3434 289.123C42.3315 262.015 16.0614 214.996 16.0614 163.369H20.1542C20.1542 213.568 45.7009 259.274 88.4945 285.64L86.3434 289.123Z" fill="black"/>
<path d="M163.65 310.977C147.469 310.977 131.574 308.369 116.383 303.248L117.696 299.384C132.468 304.372 147.926 306.903 163.669 306.903C237.587 306.903 298.979 251.527 306.422 178.085L310.496 178.504C302.805 254.001 239.681 310.977 163.65 310.977Z" fill="black"/>
<path d="M305.318 140.45C299.969 107.155 282.874 76.6403 257.156 54.5392C231.171 32.1906 197.953 19.8931 163.65 19.8931C135.952 19.8931 109.073 27.7932 85.9054 42.7557C58.912 60.193 38.3147 86.463 27.9018 116.731L24.0375 115.398C34.7359 84.2739 55.9233 57.2613 83.6782 39.3291C107.512 23.9478 135.152 15.8193 163.631 15.8193C198.924 15.8193 233.075 28.4784 259.802 51.4553C286.243 74.1846 303.833 105.575 309.334 139.822L305.318 140.45Z" fill="black"/>
<path d="M163.65 269.973C104.866 269.973 57.0466 222.154 57.0466 163.37C57.0466 139.574 64.7183 117.073 79.2049 98.3035L82.441 100.797C68.5065 118.863 61.1394 140.488 61.1394 163.37C61.1394 219.888 107.131 265.88 163.65 265.88C173.682 265.88 183.6 264.433 193.099 261.578L194.279 265.499C184.38 268.488 174.063 269.973 163.65 269.973Z" fill="black"/>
<path d="M235.645 241.989L232.885 238.982C254.034 219.603 266.16 192.057 266.16 163.388C266.16 143.21 260.297 123.679 249.218 106.908L252.625 104.661C264.161 122.099 270.253 142.41 270.253 163.407C270.234 193.199 257.632 221.849 235.645 241.989Z" fill="black"/>
<path d="M227.421 83.1123C209.128 68.5496 187.064 60.8589 163.65 60.8589C143.11 60.8589 123.293 66.9125 106.331 78.3723L104.047 74.9839C121.675 63.0671 142.291 56.7852 163.65 56.7852C188.016 56.7852 210.955 64.7804 229.972 79.9333L227.421 83.1123Z" fill="black"/>
<path d="M163.65 251.66C149.296 251.66 135.038 248.138 122.436 241.475L123.388 239.667C135.704 246.177 149.62 249.623 163.631 249.623C202.331 249.623 236.521 223.6 246.781 186.327L248.742 186.879C238.272 225.028 203.264 251.66 163.65 251.66Z" fill="black"/>
<path d="M101.23 225.828C84.5539 209.152 75.3594 186.974 75.3594 163.388C75.3594 114.713 114.955 75.0981 163.65 75.0981C212.326 75.0981 251.94 114.713 251.94 163.388H249.903C249.903 115.836 211.221 77.154 163.669 77.154C116.116 77.154 77.4343 115.836 77.4343 163.388C77.4343 186.422 86.4004 208.086 102.715 224.381L101.23 225.828Z" fill="black"/>
<path d="M163.65 218.289C133.363 218.289 108.73 193.656 108.73 163.369C108.73 133.083 133.363 108.45 163.65 108.45V112.543C135.628 112.543 112.823 135.348 112.823 163.369C112.823 191.391 135.628 214.196 163.65 214.196C191.671 214.196 214.477 191.391 214.477 163.369H218.569C218.55 193.656 193.917 218.289 163.65 218.289Z" fill="black"/>
<path d="M163.65 190.667C148.592 190.667 136.352 178.427 136.352 163.369H138.389C138.389 177.285 149.715 188.612 163.631 188.612C177.546 188.612 188.873 177.285 188.873 163.369C188.873 149.454 177.546 138.127 163.631 138.127C155.902 138.127 148.706 141.592 143.871 147.645L142.272 146.37C147.488 139.822 155.274 136.071 163.631 136.071C178.688 136.071 190.929 148.312 190.929 163.369C190.929 178.427 178.688 190.667 163.65 190.667Z" fill="black"/>
</svg>
