<svg width="240" height="240" viewBox="0 0 240 240" fill="none" xmlns="http://www.w3.org/2000/svg">
<path d="M214.868 192.101L213.683 191.195C229.451 170.492 237.788 145.76 237.788 119.661C237.788 79.2302 217.447 42.034 183.374 20.1596L184.183 18.9048C218.688 41.0441 239.28 78.7143 239.28 119.661C239.28 146.08 230.831 171.133 214.868 192.101Z" fill="black"/>
<path d="M119.647 239.294C53.6752 239.294 0 185.619 0 119.647C0 53.6752 53.6752 0 119.647 0V1.49174C54.4978 1.49174 1.5057 54.4977 1.5057 119.633C1.5057 184.782 54.5117 237.774 119.647 237.774C139.333 237.774 158.823 232.839 175.999 223.498L176.71 224.809C159.311 234.303 139.57 239.294 119.647 239.294Z" fill="black"/>
<path d="M63.0302 211.745C30.7972 191.892 11.5577 157.457 11.5577 119.647H14.5552C14.5552 156.411 33.2648 189.885 64.6056 209.194L63.0302 211.745Z" fill="black"/>
<path d="M119.647 227.75C107.796 227.75 96.1552 225.84 85.0298 222.09L85.9918 219.26C96.8105 222.913 108.131 224.767 119.661 224.767C173.796 224.767 218.758 184.211 224.209 130.424L227.192 130.731C221.56 186.023 175.33 227.75 119.647 227.75Z" fill="black"/>
<path d="M223.4 102.861C219.483 78.4774 206.963 56.129 188.128 39.9428C169.098 23.5754 144.77 14.5691 119.647 14.5691C99.3619 14.5691 79.6764 20.3549 62.7094 31.313C42.9402 44.0835 27.8554 63.3229 20.2293 85.4901L17.3992 84.5142C25.2344 61.7196 40.7514 41.9365 61.0782 28.8035C78.5331 17.5386 98.7764 11.5856 119.633 11.5856C145.481 11.5856 170.492 20.8567 190.066 37.6843C209.431 54.3305 222.313 77.3203 226.342 102.401L223.4 102.861Z" fill="black"/>
<path d="M119.647 197.72C76.5953 197.72 41.574 162.699 41.574 119.647C41.574 102.22 47.1924 85.7409 57.802 71.9945L60.1721 73.8209C49.9668 87.0514 44.5714 102.889 44.5714 119.647C44.5714 161.04 78.2544 194.723 119.647 194.723C126.994 194.723 134.258 193.663 141.215 191.572L142.079 194.444C134.829 196.633 127.273 197.72 119.647 197.72Z" fill="black"/>
<path d="M172.374 177.226L170.353 175.023C185.842 160.83 194.722 140.657 194.722 119.661C194.722 104.883 190.428 90.5787 182.314 78.2961L184.81 76.651C193.259 89.4215 197.72 104.297 197.72 119.675C197.706 141.493 188.477 162.476 172.374 177.226Z" fill="black"/>
<path d="M166.351 60.869C152.953 50.2037 136.795 44.5713 119.647 44.5713C104.604 44.5713 90.0907 49.0047 77.6687 57.3976L75.9957 54.9159C88.9057 46.1885 104.004 41.5878 119.647 41.5878C137.492 41.5878 154.292 47.4433 168.22 58.5408L166.351 60.869Z" fill="black"/>
<path d="M119.647 184.308C109.135 184.308 98.6926 181.729 89.4633 176.849L90.1603 175.525C99.1806 180.293 109.372 182.816 119.633 182.816C147.976 182.816 173.015 163.758 180.53 136.46L181.966 136.865C174.298 164.804 148.659 184.308 119.647 184.308Z" fill="black"/>
<path d="M73.9324 165.389C61.7195 153.176 54.9857 136.935 54.9857 119.661C54.9857 84.0121 83.9843 54.9996 119.647 54.9996C155.296 54.9996 184.308 84.0121 184.308 119.661H182.816C182.816 84.8347 154.487 56.5053 119.661 56.5053C84.8347 56.5053 56.5053 84.8347 56.5053 119.661C56.5053 136.53 63.0718 152.396 75.0198 164.33L73.9324 165.389Z" fill="black"/>
<path d="M119.647 159.868C97.4658 159.868 79.4253 141.828 79.4253 119.647C79.4253 97.4658 97.4658 79.4253 119.647 79.4253V82.4228C99.1248 82.4228 82.4227 99.1248 82.4227 119.647C82.4227 140.169 99.1248 156.871 119.647 156.871C140.169 156.871 156.871 140.169 156.871 119.647H159.868C159.854 141.828 141.814 159.868 119.647 159.868Z" fill="black"/>
<path d="M119.647 139.639C108.619 139.639 99.6545 130.675 99.6545 119.647H101.146C101.146 129.838 109.442 138.134 119.633 138.134C129.824 138.134 138.119 129.838 138.119 119.647C138.119 109.456 129.824 101.16 119.633 101.16C113.973 101.16 108.703 103.698 105.161 108.131L103.99 107.197C107.81 102.401 113.512 99.6547 119.633 99.6547C130.661 99.6547 139.625 108.619 139.625 119.647C139.625 130.675 130.661 139.639 119.647 139.639Z" fill="black"/>
</svg>
