<svg width="174" height="174" viewBox="0 0 174 174" fill="none" xmlns="http://www.w3.org/2000/svg">
<circle cx="3" cy="3" r="3" fill="black"/>
<circle cx="24" cy="3" r="3" fill="black"/>
<circle cx="45" cy="3" r="3" fill="black"/>
<circle cx="66" cy="3" r="3" fill="black"/>
<circle cx="87" cy="3" r="3" fill="black"/>
<circle cx="108" cy="3" r="3" fill="black"/>
<circle cx="129" cy="3" r="3" fill="black"/>
<circle cx="150" cy="3" r="3" fill="black"/>
<circle cx="171" cy="3" r="3" fill="black"/>
<circle cx="3" cy="24" r="3" fill="black"/>
<circle cx="24" cy="24" r="3" fill="black"/>
<circle cx="45" cy="24" r="3" fill="black"/>
<circle cx="66" cy="24" r="3" fill="black"/>
<circle cx="87" cy="24" r="3" fill="black"/>
<circle cx="108" cy="24" r="3" fill="black"/>
<circle cx="129" cy="24" r="3" fill="black"/>
<circle cx="150" cy="24" r="3" fill="black"/>
<circle cx="171" cy="24" r="3" fill="black"/>
<circle cx="3" cy="45" r="3" fill="black"/>
<circle cx="24" cy="45" r="3" fill="black"/>
<circle cx="45" cy="45" r="3" fill="black"/>
<circle cx="66" cy="45" r="3" fill="black"/>
<circle cx="87" cy="45" r="3" fill="black"/>
<circle cx="108" cy="45" r="3" fill="black"/>
<circle cx="129" cy="45" r="3" fill="black"/>
<circle cx="150" cy="45" r="3" fill="black"/>
<circle cx="171" cy="45" r="3" fill="black"/>
<circle cx="3" cy="66" r="3" fill="black"/>
<circle cx="24" cy="66" r="3" fill="black"/>
<circle cx="45" cy="66" r="3" fill="black"/>
<circle cx="66" cy="66" r="3" fill="black"/>
<circle cx="87" cy="66" r="3" fill="black"/>
<circle cx="108" cy="66" r="3" fill="black"/>
<circle cx="129" cy="66" r="3" fill="black"/>
<circle cx="150" cy="66" r="3" fill="black"/>
<circle cx="171" cy="66" r="3" fill="black"/>
<circle cx="3" cy="87" r="3" fill="black"/>
<circle cx="24" cy="87" r="3" fill="black"/>
<circle cx="45" cy="87" r="3" fill="black"/>
<circle cx="66" cy="87" r="3" fill="black"/>
<circle cx="87" cy="87" r="3" fill="black"/>
<circle cx="108" cy="87" r="3" fill="black"/>
<circle cx="129" cy="87" r="3" fill="black"/>
<circle cx="150" cy="87" r="3" fill="black"/>
<circle cx="171" cy="87" r="3" fill="black"/>
<circle cx="3" cy="108" r="3" fill="black"/>
<circle cx="24" cy="108" r="3" fill="black"/>
<circle cx="45" cy="108" r="3" fill="black"/>
<circle cx="66" cy="108" r="3" fill="black"/>
<circle cx="87" cy="108" r="3" fill="black"/>
<circle cx="108" cy="108" r="3" fill="black"/>
<circle cx="129" cy="108" r="3" fill="black"/>
<circle cx="150" cy="108" r="3" fill="black"/>
<circle cx="171" cy="108" r="3" fill="black"/>
<circle cx="3" cy="129" r="3" fill="black"/>
<circle cx="24" cy="129" r="3" fill="black"/>
<circle cx="45" cy="129" r="3" fill="black"/>
<circle cx="66" cy="129" r="3" fill="black"/>
<circle cx="87" cy="129" r="3" fill="black"/>
<circle cx="108" cy="129" r="3" fill="black"/>
<circle cx="129" cy="129" r="3" fill="black"/>
<circle cx="150" cy="129" r="3" fill="black"/>
<circle cx="171" cy="129" r="3" fill="black"/>
<circle cx="3" cy="150" r="3" fill="black"/>
<circle cx="24" cy="150" r="3" fill="black"/>
<circle cx="45" cy="150" r="3" fill="black"/>
<circle cx="66" cy="150" r="3" fill="black"/>
<circle cx="87" cy="150" r="3" fill="black"/>
<circle cx="108" cy="150" r="3" fill="black"/>
<circle cx="129" cy="150" r="3" fill="black"/>
<circle cx="150" cy="150" r="3" fill="black"/>
<circle cx="171" cy="150" r="3" fill="black"/>
<circle cx="3" cy="171" r="3" fill="black"/>
<circle cx="24" cy="171" r="3" fill="black"/>
<circle cx="45" cy="171" r="3" fill="black"/>
<circle cx="66" cy="171" r="3" fill="black"/>
<circle cx="87" cy="171" r="3" fill="black"/>
<circle cx="108" cy="171" r="3" fill="black"/>
<circle cx="129" cy="171" r="3" fill="black"/>
<circle cx="150" cy="171" r="3" fill="black"/>
<circle cx="171" cy="171" r="3" fill="black"/>
</svg>
