<svg width="311" height="335" viewBox="0 0 311 335" fill="none" xmlns="http://www.w3.org/2000/svg">
<path d="M96.9815 218.733H94.37L93.7833 220.362H92.9357L95.3163 214.119H96.0353L98.4203 220.362H97.577L96.9815 218.733ZM94.6185 218.055H96.7375L95.6758 215.135L94.6185 218.055ZM99.9956 220.362H99.2036V213.776H99.9956V220.362ZM101.075 218.004C101.075 217.292 101.243 216.72 101.58 216.289C101.917 215.854 102.358 215.637 102.903 215.637C103.445 215.637 103.875 215.823 104.191 216.194V213.776H104.983V220.362H104.256L104.218 219.865C103.9 220.253 103.459 220.448 102.894 220.448C102.358 220.448 101.92 220.228 101.58 219.787C101.243 219.347 101.075 218.773 101.075 218.064V218.004ZM101.867 218.094C101.867 218.62 101.975 219.031 102.192 219.328C102.409 219.626 102.709 219.775 103.092 219.775C103.594 219.775 103.96 219.549 104.191 219.097V216.966C103.955 216.529 103.591 216.31 103.1 216.31C102.712 216.31 102.409 216.46 102.192 216.761C101.975 217.061 101.867 217.505 101.867 218.094ZM108.139 220.448C107.511 220.448 107 220.242 106.606 219.83C106.212 219.415 106.015 218.863 106.015 218.171V218.025C106.015 217.565 106.103 217.155 106.277 216.794C106.453 216.431 106.699 216.149 107.013 215.945C107.33 215.74 107.672 215.637 108.041 215.637C108.643 215.637 109.111 215.836 109.445 216.233C109.779 216.63 109.945 217.199 109.945 217.939V218.269H106.807C106.819 218.727 106.952 219.097 107.205 219.38C107.463 219.66 107.788 219.8 108.182 219.8C108.461 219.8 108.698 219.743 108.893 219.628C109.087 219.514 109.256 219.363 109.402 219.174L109.886 219.551C109.498 220.149 108.915 220.448 108.139 220.448ZM108.041 216.289C107.721 216.289 107.452 216.406 107.235 216.64C107.019 216.872 106.885 217.197 106.833 217.618H109.153V217.558C109.131 217.155 109.023 216.843 108.828 216.623C108.634 216.4 108.372 216.289 108.041 216.289ZM113.106 216.434C112.986 216.415 112.856 216.404 112.716 216.404C112.196 216.404 111.844 216.626 111.658 217.069V220.362H110.866V215.723H111.637L111.649 216.259C111.91 215.844 112.278 215.637 112.754 215.637C112.908 215.637 113.025 215.657 113.106 215.697V216.434ZM114.582 215.723L114.604 216.237C114.943 215.837 115.402 215.637 115.978 215.637C116.626 215.637 117.067 215.885 117.301 216.383C117.456 216.16 117.655 215.98 117.901 215.843C118.149 215.705 118.441 215.637 118.778 215.637C119.794 215.637 120.311 216.176 120.328 217.253V220.362H119.536V217.301C119.536 216.969 119.461 216.722 119.309 216.559C119.158 216.393 118.904 216.31 118.547 216.31C118.253 216.31 118.009 216.398 117.815 216.576C117.621 216.75 117.508 216.986 117.477 217.283V220.362H116.68V217.322C116.68 216.647 116.351 216.31 115.692 216.31C115.172 216.31 114.816 216.532 114.626 216.975V220.362H113.833V215.723H114.582ZM124.387 220.362C124.342 220.27 124.304 220.108 124.276 219.873C123.908 220.256 123.468 220.448 122.957 220.448C122.5 220.448 122.125 220.319 121.831 220.062C121.54 219.802 121.394 219.473 121.394 219.076C121.394 218.592 121.577 218.218 121.942 217.952C122.31 217.683 122.827 217.549 123.492 217.549H124.263V217.185C124.263 216.908 124.18 216.687 124.014 216.524C123.849 216.359 123.605 216.275 123.282 216.275C123 216.275 122.763 216.347 122.572 216.49C122.38 216.633 122.285 216.806 122.285 217.009H121.488C121.488 216.777 121.57 216.554 121.732 216.34C121.898 216.123 122.121 215.951 122.4 215.825C122.683 215.7 122.993 215.637 123.33 215.637C123.863 215.637 124.282 215.771 124.584 216.04C124.887 216.305 125.044 216.673 125.055 217.142V219.277C125.055 219.703 125.109 220.042 125.218 220.293V220.362H124.387ZM123.072 219.757C123.321 219.757 123.556 219.693 123.779 219.565C124.002 219.436 124.163 219.268 124.263 219.063V218.111H123.642C122.671 218.111 122.186 218.395 122.186 218.964C122.186 219.213 122.269 219.407 122.434 219.547C122.6 219.688 122.813 219.757 123.072 219.757ZM127.046 215.723L127.071 216.305C127.425 215.86 127.888 215.637 128.458 215.637C129.437 215.637 129.931 216.19 129.94 217.296V220.362H129.148V217.292C129.145 216.957 129.068 216.71 128.916 216.55C128.768 216.39 128.536 216.31 128.219 216.31C127.962 216.31 127.736 216.379 127.542 216.516C127.348 216.653 127.197 216.833 127.088 217.056V220.362H126.296V215.723H127.046Z" fill="black"/>
<path d="M112.822 300.686L96.9296 314.699C90.1561 320.67 78.5746 316.44 78.5746 307.996H15.735C5.25685 307.996 -0.142971 296.954 7.04705 290.237C25.0294 273.407 35.0472 251.213 35.0472 228.112V124.688C35.0618 58.5393 96.4327 3.5418 171.438 3.65888C246.444 3.77596 307.347 57.4563 307.347 123.664V266.755C307.347 299.456 266.998 319.748 235.067 303.1L234.446 302.779" fill="#F3B227"/>
<path d="M170.708 2.92731C154.899 2.88414 139.183 5.354 124.148 10.2447C136.034 7.30344 148.235 5.82901 160.478 5.85427C235.542 5.97134 296.387 59.6517 296.387 125.859V268.951C296.387 286.835 284.316 301.008 268.153 307.455C289.175 303.65 306.617 287.522 306.617 266.024V122.933C306.587 56.7247 245.779 3.04439 170.708 2.92731Z" fill="#E8A42A"/>
<path opacity="0.5" d="M20.1338 307.373C37.1882 290.748 46.658 269.118 46.658 246.639V143.244C46.658 77.1172 108.036 22.0976 183.035 22.2147C233.788 22.2952 278.025 46.8596 301.348 83.2272C282.738 36.586 232.386 3.13093 173.148 3.03581C98.1426 2.92605 36.7717 57.9455 36.7717 124.073V227.489C36.7717 250.59 26.7539 272.813 8.77154 289.614C1.58152 296.331 6.98134 307.373 17.4595 307.373H20.1338Z" fill="#F1D427"/>
<path d="M89.3743 321.16C87.1339 321.158 84.9192 320.68 82.8784 319.755C81.1408 319.007 79.5822 317.898 78.305 316.502C77.0277 315.105 76.061 313.453 75.4692 311.655H15.7496C9.07108 311.655 3.32784 307.959 1.05538 302.237C0.0715758 299.726 -0.118988 296.974 0.509627 294.351C1.13817 291.729 2.55542 289.363 4.57002 287.573C21.8801 271.402 31.4084 250.254 31.4084 228.119V124.688C31.4084 94.2991 44.0567 64.9125 67.0297 41.9432C93.6926 15.2787 131.659 0 171.205 0H171.446C208.645 0.058539 243.624 12.8932 269.943 36.1332C296.402 59.4976 310.972 90.5818 310.972 123.664V266.755C310.972 282.158 302.81 295.959 288.568 304.608C280.278 309.594 270.851 312.371 261.185 312.675C251.519 312.978 241.936 310.798 233.35 306.342L232.729 306.02L236.097 299.53L236.719 299.852C244.191 303.731 252.53 305.63 260.942 305.367C269.355 305.105 277.56 302.689 284.776 298.352C296.774 291.034 303.657 279.539 303.657 266.755V123.664C303.657 59.6293 244.34 7.43446 171.402 7.31738C133.742 7.23689 97.5507 21.7692 72.1883 47.1239C50.6037 68.7102 38.7153 96.2528 38.7153 124.688V228.112C38.7153 252.333 28.3614 275.346 9.55334 292.915C7.55124 294.788 6.93015 297.21 7.85083 299.552C8.72035 301.747 11.307 304.337 15.7496 304.337H82.2427V307.996C82.2427 311.091 84.8074 312.584 85.8962 313.118C87.2918 313.771 88.8452 314.012 90.3724 313.811C91.9003 313.61 93.3383 312.976 94.5183 311.984L110.411 297.971L115.241 303.466L99.3482 317.479C96.5818 319.881 93.035 321.189 89.3743 321.16Z" fill="#431818"/>
<path d="M98.2011 87.5947C102.104 86.421 106.142 85.7566 110.214 85.619C113.528 85.5012 116.846 85.7464 120.107 86.3508C125.675 87.4045 128.817 89.0216 128.737 89.2045C128.634 89.5046 125.368 88.3557 119.903 87.6606C112.804 86.7115 105.585 87.2991 98.733 89.3831C91.8806 91.4671 85.5542 94.9999 80.1822 99.7416C76.0318 103.364 73.9494 106.137 73.7009 105.947C73.4525 105.756 75.25 102.749 79.2907 98.7684C81.664 96.448 84.2828 94.394 87.1018 92.6437C90.569 90.4887 94.2992 88.7911 98.2011 87.5947Z" fill="#D49C43"/>
<path d="M113.874 82.1089C118.98 82.4747 123.999 83.6199 128.759 85.5041C132.412 86.9676 134.407 88.3433 134.305 88.5482C134.202 88.753 131.966 87.8896 128.32 86.7481C123.567 85.2817 118.666 84.3516 113.706 83.9748C110.987 83.7772 108.259 83.7553 105.537 83.9089C103.331 84.0033 101.134 84.2477 98.961 84.6407C97.5113 84.9319 96.1098 85.4244 94.796 86.1042C93.8753 86.5944 93.3858 86.953 93.2835 86.8359C93.1812 86.7188 93.5246 86.2139 94.3941 85.4822C95.6575 84.5141 97.097 83.8006 98.6322 83.3821C100.857 82.7711 103.135 82.3686 105.435 82.182C108.242 81.9245 111.064 81.9003 113.874 82.1089Z" fill="#D49C43"/>
<path d="M257.646 98.4481C261.439 102.01 264.599 106.191 266.991 110.815C268.818 114.334 269.563 116.668 269.351 116.771C269.139 116.873 267.934 114.759 265.851 111.48C263.2 107.204 260.006 103.289 256.352 99.8311C252.692 96.4293 248.406 93.7723 243.733 92.0089C240.131 90.6844 237.712 90.399 237.741 90.099C237.771 89.799 240.255 89.6966 244.135 90.7503C249.18 92.2167 253.809 94.8539 257.646 98.4481Z" fill="#D49C43"/>
<path d="M271.171 112.125C271.799 114.28 272.251 116.482 272.522 118.71C272.772 120.518 272.926 122.338 272.983 124.162C273.063 127.301 272.654 129.218 272.413 129.196C272.172 129.174 272.077 127.279 271.682 124.264C271.485 122.757 271.193 120.964 270.835 118.974C270.471 116.835 269.984 114.719 269.373 112.637C268.235 108.907 266.344 105.451 263.82 102.481C261.884 100.176 260.393 98.9755 260.561 98.7413C260.729 98.5072 262.483 99.3853 264.777 101.573C266.118 102.864 267.302 104.308 268.306 105.876C269.545 107.816 270.509 109.919 271.171 112.125Z" fill="#D49C43"/>
<path d="M277.192 232.034C277.192 283.834 228.52 329.026 168.479 329.026C108.438 329.026 59.7666 283.834 59.7666 232.034C59.7666 208.999 43.779 174.629 59.7666 143.552C79.6999 104.77 135.138 71.1099 168.479 71.1099C201.36 71.1099 252.312 101.199 272.238 139.33C288.693 170.787 277.192 208.604 277.192 232.034Z" fill="#FFD2A0"/>
<path d="M129.621 210.14C135.803 210.14 140.815 205.121 140.815 198.929C140.815 192.738 135.803 187.719 129.621 187.719C123.438 187.719 118.427 192.738 118.427 198.929C118.427 205.121 123.438 210.14 129.621 210.14Z" fill="#431818"/>
<path d="M125.741 197.781C127.254 197.781 128.481 196.552 128.481 195.036C128.481 193.521 127.254 192.292 125.741 192.292C124.228 192.292 123.001 193.521 123.001 195.036C123.001 196.552 124.228 197.781 125.741 197.781Z" fill="white"/>
<path d="M204.363 210.14C210.546 210.14 215.558 205.121 215.558 198.929C215.558 192.738 210.546 187.719 204.363 187.719C198.181 187.719 193.169 192.738 193.169 198.929C193.169 205.121 198.181 210.14 204.363 210.14Z" fill="#431818"/>
<path d="M200.476 197.781C201.989 197.781 203.216 196.552 203.216 195.036C203.216 193.521 201.989 192.292 200.476 192.292C198.963 192.292 197.736 193.521 197.736 195.036C197.736 196.552 198.963 197.781 200.476 197.781Z" fill="white"/>
<path d="M180.47 243.077H153.288V247.467H180.47V243.077Z" fill="#431818"/>
<path d="M279.764 173.114C279.596 178.551 279.208 183.892 278.741 189.08C235.549 177.812 188.968 111.516 188.968 111.516C188.968 144.525 93.2104 177.929 54.2279 190.156C53.2561 184.192 52.372 178.017 51.8605 171.716C89.1697 160.148 188.968 126.041 188.968 92.3447C188.968 92.3447 236.185 159.54 279.617 170.121C279.661 171.116 279.727 172.111 279.764 173.114Z" fill="#D4AF86"/>
<path d="M168.479 334.543C138.746 334.563 110.206 322.838 89.0528 301.915C68.1184 281.368 56.1131 253.525 56.1131 225.514C56.1131 218.138 54.6517 209.358 53.0295 200.05C49.3761 178.756 44.8823 152.26 56.4346 127.827C65.9337 107.741 84.3544 87.1134 106.969 71.2274C128.561 56.0658 151.542 47.0142 168.45 47.0142C185.358 47.0142 206.855 55.0633 227.263 69.1785C248.753 84.0108 265.888 103.19 275.489 123.188C288.021 149.223 284.988 178.859 282.496 202.677C281.634 211.033 280.816 218.936 280.816 225.514C280.816 253.525 268.811 281.368 247.876 301.915C226.73 322.831 198.202 334.555 168.479 334.543ZM168.479 54.3315C153.018 54.3315 131.601 62.8856 111.193 77.2203C89.557 92.3966 72.0203 111.956 63.0474 130.981C52.4816 153.328 56.6027 177.505 60.2416 198.842C61.8783 208.458 63.4274 217.538 63.4274 225.536C63.4274 280.665 111.536 327.248 168.486 327.248C225.437 327.248 273.545 280.673 273.545 225.536C273.545 218.577 274.378 210.499 275.263 201.945C277.63 179.049 280.575 150.555 268.942 126.393C259.86 107.522 243.587 89.3525 223.128 75.23C204.188 62.1319 183.751 54.3315 168.457 54.3315H168.479Z" fill="#431818"/>
<path d="M51.6851 105.108C51.6851 105.108 55.2582 155.21 39.2633 181.809C39.2633 181.809 190.225 139.749 190.225 98.3031C190.225 98.3031 245.859 177.477 291.9 177.477V124.28L257.346 76.029L217.699 51.8813L174.851 45.0762L153.748 46.3128L128.81 50.052L99.3994 63.0403L71.2604 77.2729L51.6851 105.108Z" fill="#F3B227"/>
<path d="M46.899 184.215C45.9423 184.209 45.0037 183.953 44.1769 183.47C43.3501 182.987 42.6642 182.297 42.1872 181.466C41.7104 180.636 41.4593 179.694 41.4591 178.736C41.4589 177.777 41.7096 176.836 42.1861 176.005C48.5943 164.824 63.1789 135.635 60.3219 106.073L67.6288 105.341C70.3908 133.879 58.1298 161.766 50.7717 175.588C66.3647 170.744 97.5361 160.441 126.457 147.131C175.954 124.359 186.374 107.983 186.374 98.2507V86.4111L193.052 96.2384C193.578 97.014 246.218 173.803 288.24 173.803V181.12C249.798 181.12 206.278 126.723 191.854 107.149C189.012 114.151 182.859 121.344 173.455 128.625C162.948 136.769 148.166 145.243 129.533 153.819C97.1707 168.702 62.1267 179.861 48.5577 183.966C48.0208 184.133 47.4614 184.217 46.899 184.215Z" fill="#431818"/>
<path d="M231.56 131.67C235.213 135.248 238.94 138.446 242.403 141.241C244.164 142.602 245.808 143.926 247.431 145.068C248.234 145.646 248.994 146.231 249.747 146.751L251.939 148.214C257.521 151.99 261.168 154.068 261.029 154.317C260.97 154.434 259.991 154.032 258.281 153.212L256.856 152.517C256.345 152.253 255.797 151.946 255.205 151.617C254.029 150.958 252.662 150.234 251.23 149.319L248.972 147.936C248.183 147.439 247.394 146.882 246.568 146.326C244.895 145.229 243.185 143.934 241.38 142.594C237.509 139.61 233.808 136.41 230.296 133.009C226.814 129.574 223.528 125.947 220.453 122.142C219.072 120.364 217.735 118.689 216.603 117.02C216.025 116.201 215.448 115.425 214.937 114.649L213.475 112.41C212.525 110.998 211.773 109.652 211.086 108.488C210.75 107.903 210.428 107.361 210.151 106.856L209.42 105.451C208.558 103.754 208.141 102.788 208.251 102.722C208.514 102.576 210.662 106.176 214.564 111.671L216.106 113.815C216.646 114.547 217.246 115.279 217.837 116.098C219.014 117.686 220.373 119.311 221.776 121.037C224.618 124.447 227.899 128.055 231.56 131.67Z" fill="#7B5151"/>
<path d="M246.641 136.834C255.585 143.53 263.893 147.357 263.652 147.876C263.557 148.096 261.35 147.422 257.974 145.842C256.287 145.059 254.321 144.02 252.202 142.776C250.083 141.532 247.818 140.025 245.531 138.334C243.244 136.644 241.147 134.888 239.356 133.212C237.566 131.536 235.988 129.956 234.753 128.566C232.269 125.792 230.983 123.868 231.165 123.714C231.589 123.356 237.647 130.205 246.641 136.834Z" fill="#7B5151"/>
<path d="M255.548 43.6642C259.702 47.1244 263.535 50.9549 266.998 55.1086C269.831 58.5139 272.323 62.1903 274.437 66.0846C275.868 68.693 277.067 71.4233 278.017 74.2438C278.668 76.2488 278.887 77.3903 278.748 77.4269C278.434 77.5439 277.06 73.0946 273.26 66.7358C271.027 63.03 268.483 59.522 265.654 56.2501C262.182 52.2442 258.392 48.5269 254.321 45.135C245.633 37.9054 236.784 32.5564 230.486 28.6562C224.187 24.7561 220.176 22.3706 220.307 22.1364C220.439 21.9023 224.589 23.9292 231.143 27.5147C237.698 31.1002 246.692 36.3175 255.548 43.6642Z" fill="#7B5151"/>
<path d="M265.201 61.0913C267.174 63.7118 268.938 66.4839 270.476 69.3819C271.149 70.7356 271.806 72.0161 272.303 73.26C272.559 73.882 272.829 74.4674 273.034 75.0528L273.64 76.7431C275.102 81.0677 275.467 83.8775 275.255 83.9288C275.043 83.98 274.159 81.3238 272.405 77.2187L271.675 75.6162C271.434 75.0601 271.134 74.4967 270.849 73.9113C270.301 72.7186 269.607 71.5039 268.913 70.2087C265.787 64.6421 261.899 59.5412 257.361 55.0545C256.294 54.0447 255.307 53.0495 254.306 52.208C253.809 51.7836 253.349 51.3445 252.845 50.964L251.486 49.8664C247.993 47.0931 245.64 45.6077 245.779 45.3443C245.918 45.0809 248.497 46.237 252.275 48.7981L253.736 49.8225C254.24 50.1811 254.737 50.5982 255.271 51.0153C256.345 51.8275 257.397 52.8007 258.522 53.8032C260.937 56.052 263.17 58.489 265.201 61.0913Z" fill="#7B5151"/>
<path d="M66.2259 61.575C68.8352 58.7299 71.6432 56.0743 74.6289 53.6283C76.0318 52.5307 77.3543 51.477 78.6623 50.5989C79.3126 50.1526 79.9264 49.6989 80.5475 49.3038L82.3742 48.1842C86.9776 45.4036 90.0903 44.2255 90.1853 44.4158C90.2803 44.606 87.4379 46.2744 83.0976 49.2891L81.3732 50.4892C80.7886 50.9063 80.204 51.3819 79.583 51.8429C78.3335 52.7576 77.0767 53.8405 75.7322 54.9455C69.9773 59.8595 64.877 65.4937 60.5557 71.7096C59.5839 73.1731 58.634 74.5122 57.8375 75.8513C57.4356 76.5172 57.0191 77.1392 56.6611 77.7684L55.6381 79.5685C53.0661 84.1492 51.7582 87.1932 51.4805 87.0762C51.2028 86.9591 52.1527 83.7833 54.469 78.9319L55.4042 77.0367C55.7331 76.3781 56.135 75.7269 56.5077 75.0317C57.2384 73.6341 58.181 72.2218 59.1309 70.7144C61.2762 67.5033 63.6473 64.4491 66.2259 61.575Z" fill="#7B5151"/>
<path d="M83.3899 55.6132C85.0793 54.5456 86.8483 53.6087 88.6802 52.8106C90.1759 52.168 91.7169 51.6373 93.2908 51.2227C95.9798 50.5276 97.675 50.491 97.748 50.6959C97.8796 51.252 91.2668 52.7374 84.3983 57.1864C77.5298 61.6354 73.3429 66.9185 72.8753 66.5892C72.6853 66.4502 73.4671 64.9135 75.2281 62.7622C76.2671 61.5067 77.3983 60.3303 78.6112 59.2426C80.1091 57.9125 81.7071 56.6991 83.3899 55.6132Z" fill="#7B5151"/>
<path d="M90.3241 155.574C97.6311 152.332 104.105 149.179 108.803 146.866C113.502 144.554 116.417 143.12 116.549 143.354C116.68 143.588 113.984 145.41 109.424 148.03C103.469 151.419 97.3483 154.506 91.0841 157.279C84.8257 160.07 78.4314 162.544 71.9253 164.692C66.9273 166.316 63.7561 167.077 63.6831 166.843C63.61 166.609 66.6058 165.379 71.4796 163.448C76.3533 161.516 83.0318 158.786 90.3241 155.574Z" fill="#7B5151"/>
<path d="M101.672 144.292C108.628 140.729 114.094 137.421 114.371 137.86C114.649 138.299 109.607 142.324 102.527 145.953C95.4464 149.583 89.2135 151.353 89.0601 150.885C88.9066 150.417 94.7303 147.885 101.672 144.292Z" fill="#7B5151"/>
<path d="M284.323 280.05C285.628 276.75 286.562 273.313 287.107 269.805C287.559 266.898 287.842 263.965 287.955 261.025C288.167 256.005 288.093 252.858 288.378 252.844C288.663 252.829 289.146 255.939 289.277 261.039C289.35 264.039 289.195 267.041 288.81 270.018C288.344 273.695 287.419 277.299 286.055 280.745C284.646 284.205 282.67 287.405 280.209 290.214C278.202 292.511 275.827 294.458 273.18 295.972C271.406 296.986 269.489 297.726 267.495 298.168C266.085 298.46 265.303 298.468 265.267 298.358C265.23 298.248 265.997 297.963 267.291 297.472C269.118 296.779 270.865 295.888 272.501 294.816C274.908 293.226 277.068 291.288 278.909 289.065C281.16 286.352 282.985 283.313 284.323 280.05Z" fill="#7B5151"/>
<path d="M292.047 270.547C292.745 267.351 293.233 264.111 293.508 260.851C293.603 259.344 293.72 257.924 293.72 256.571C293.72 255.898 293.764 255.246 293.72 254.624L293.676 252.824C293.523 248.244 293.091 245.404 293.384 245.353C293.676 245.302 294.494 248.075 294.991 252.736L295.159 254.566C295.21 255.202 295.211 255.868 295.24 256.556C295.313 257.939 295.24 259.41 295.196 260.947C294.851 267.692 293.325 274.325 290.688 280.543C290.052 281.962 289.467 283.316 288.802 284.523C288.474 285.131 288.189 285.731 287.86 286.279L286.91 287.853C284.425 291.826 282.401 293.926 282.241 293.787C282.08 293.648 283.629 291.248 285.77 287.201L286.596 285.606C286.881 285.05 287.129 284.45 287.421 283.843C288.013 282.635 288.532 281.296 289.102 279.899C290.287 276.849 291.271 273.725 292.047 270.547Z" fill="#7B5151"/>
<path d="M188.383 179.612C190.999 172.639 198.708 168.914 205.817 168.761C215.068 168.563 223.515 173.429 230.902 178.507C234.402 180.915 237.69 175.207 234.22 172.822C225.108 166.558 214.301 161.012 202.902 162.409C193.644 163.543 185.365 168.995 182.041 177.864C180.579 181.837 186.907 183.549 188.383 179.612Z" fill="#431818"/>
<path d="M155.356 180.791C152.017 171.893 143.76 166.471 134.494 165.336C123.096 163.939 112.289 169.485 103.177 175.749C99.7062 178.135 102.994 183.842 106.494 181.435C113.882 176.356 122.321 171.49 131.579 171.688C138.689 171.842 146.39 175.566 149.013 182.54C150.475 186.469 156.846 184.735 155.356 180.791Z" fill="#431818"/>
<path d="M170.678 191.092H166.294V229.874H170.678V191.092Z" fill="#431818"/>
<path d="M197.21 265.729C200.206 265.729 201.777 270.478 199.804 273.522C191.569 286.24 179.447 294.267 165.929 294.267C152.411 294.267 140.296 286.218 132.054 273.522C130.081 270.478 131.645 265.729 134.648 265.729H197.21Z" fill="#C66F66"/>
<path d="M168.121 297.196C154.128 297.196 140.888 289.147 131.798 275.113C130.975 273.785 130.513 272.265 130.459 270.705C130.406 269.143 130.761 267.595 131.491 266.215C131.988 265.21 132.75 264.36 133.694 263.758C134.638 263.156 135.729 262.824 136.847 262.797H199.409C200.528 262.824 201.619 263.156 202.563 263.758C203.507 264.36 204.268 265.21 204.765 266.215C205.495 267.595 205.851 269.143 205.798 270.705C205.744 272.265 205.282 273.785 204.458 275.113C195.361 289.155 182.121 297.196 168.121 297.196ZM136.891 268.659C136.637 268.921 136.465 269.251 136.394 269.61C136.289 269.997 136.262 270.402 136.315 270.8C136.367 271.198 136.499 271.583 136.701 271.929C144.695 284.267 156.145 291.342 168.121 291.342C180.097 291.342 191.554 284.267 199.541 271.929C199.743 271.583 199.875 271.198 199.927 270.8C199.98 270.402 199.953 269.997 199.848 269.61C199.778 269.251 199.605 268.921 199.351 268.659H136.891Z" fill="#431818"/>
<path d="M104.916 244.509C117.83 244.509 128.298 240.25 128.298 234.996C128.298 229.743 117.83 225.483 104.916 225.483C92.0026 225.483 81.5339 229.743 81.5339 234.996C81.5339 240.25 92.0026 244.509 104.916 244.509Z" fill="#FFB2B2"/>
<path d="M231.326 244.509C244.24 244.509 254.708 240.25 254.708 234.996C254.708 229.743 244.24 225.483 231.326 225.483C218.412 225.483 207.944 229.743 207.944 234.996C207.944 240.25 218.412 244.509 231.326 244.509Z" fill="#FFB2B2"/>
<path d="M143.752 15.4983C148.917 14.3344 154.169 13.6002 159.455 13.3031C161.896 13.2299 164.205 13.1275 166.375 13.2445C167.456 13.2884 168.501 13.2884 169.502 13.3763L172.381 13.647C174.215 13.786 175.852 14.1153 177.291 14.3787C178.022 14.5104 178.68 14.6202 179.286 14.7519L180.945 15.1836C182.925 15.7324 183.992 16.1495 183.941 16.4056C183.889 16.6618 182.742 16.7203 180.726 16.6252L179.052 16.5227L177.057 16.4569C175.596 16.4203 174.018 16.2813 172.228 16.3105H169.422C168.45 16.3105 167.434 16.3691 166.382 16.3983C164.285 16.3983 162.056 16.6325 159.703 16.7935C149.526 17.7075 139.527 20.05 130.001 23.7523C127.809 24.645 125.726 25.4426 123.841 26.3646C122.891 26.811 121.949 27.1988 121.079 27.6378L118.58 28.9111C116.958 29.6794 115.577 30.5209 114.313 31.1868L112.559 32.1307L111.098 32.9649C109.33 33.9527 108.27 34.4284 108.117 34.2015C107.963 33.9747 108.73 33.1478 110.265 31.7795L111.558 30.6599C112.04 30.2648 112.596 29.8696 113.18 29.4379C114.364 28.5818 115.687 27.5647 117.265 26.628L119.72 25.106C120.582 24.5865 121.517 24.1182 122.467 23.5986C124.36 22.5303 126.479 21.5937 128.693 20.5839C133.564 18.4749 138.601 16.7739 143.752 15.4983Z" fill="white"/>
</svg>
