<svg width="369" height="579" viewBox="0 0 369 579" fill="none" xmlns="http://www.w3.org/2000/svg">
<g clip-path="url(#clip0_61_5738)">
<mask id="mask0_61_5738" style="mask-type:luminance" maskUnits="userSpaceOnUse" x="0" y="0" width="369" height="581">
<path d="M368.898 0H0V580.378H368.898V0Z" fill="white"/>
</mask>
<g mask="url(#mask0_61_5738)">
<path d="M113.982 218.733H111.37L110.783 220.362H109.936L112.316 214.119H113.035L115.42 220.362H114.577L113.982 218.733ZM111.618 218.055H113.737L112.676 215.135L111.618 218.055ZM116.996 220.362H116.204V213.776H116.996V220.362ZM118.075 218.004C118.075 217.292 118.243 216.72 118.58 216.289C118.917 215.854 119.358 215.637 119.903 215.637C120.445 215.637 120.875 215.823 121.191 216.194V213.776H121.983V220.362H121.256L121.218 219.865C120.9 220.253 120.459 220.448 119.894 220.448C119.358 220.448 118.92 220.228 118.58 219.787C118.243 219.347 118.075 218.773 118.075 218.064V218.004ZM118.867 218.094C118.867 218.62 118.975 219.031 119.192 219.328C119.409 219.626 119.709 219.775 120.092 219.775C120.594 219.775 120.96 219.549 121.191 219.097V216.966C120.955 216.529 120.591 216.31 120.1 216.31C119.712 216.31 119.409 216.46 119.192 216.761C118.975 217.061 118.867 217.505 118.867 218.094ZM125.139 220.448C124.511 220.448 124 220.242 123.606 219.83C123.212 219.415 123.015 218.863 123.015 218.171V218.025C123.015 217.565 123.103 217.155 123.277 216.794C123.454 216.431 123.699 216.149 124.013 215.945C124.33 215.74 124.672 215.637 125.041 215.637C125.643 215.637 126.111 215.836 126.445 216.233C126.779 216.63 126.946 217.199 126.946 217.939V218.269H123.807C123.819 218.727 123.952 219.097 124.205 219.38C124.463 219.66 124.788 219.8 125.182 219.8C125.461 219.8 125.698 219.743 125.893 219.628C126.087 219.514 126.256 219.363 126.402 219.174L126.886 219.551C126.498 220.149 125.915 220.448 125.139 220.448ZM125.041 216.289C124.721 216.289 124.452 216.406 124.235 216.64C124.019 216.872 123.885 217.197 123.833 217.618H126.153V217.558C126.131 217.155 126.023 216.843 125.828 216.623C125.634 216.4 125.372 216.289 125.041 216.289ZM130.106 216.434C129.986 216.415 129.856 216.404 129.716 216.404C129.196 216.404 128.844 216.626 128.658 217.069V220.362H127.866V215.723H128.637L128.649 216.259C128.91 215.844 129.278 215.637 129.754 215.637C129.908 215.637 130.025 215.657 130.106 215.697V216.434ZM131.582 215.723L131.604 216.237C131.943 215.837 132.402 215.637 132.978 215.637C133.626 215.637 134.067 215.885 134.301 216.383C134.456 216.16 134.655 215.98 134.901 215.843C135.149 215.705 135.441 215.637 135.778 215.637C136.795 215.637 137.311 216.176 137.328 217.253V220.362H136.536V217.301C136.536 216.969 136.461 216.722 136.309 216.559C136.158 216.393 135.904 216.31 135.547 216.31C135.253 216.31 135.009 216.398 134.815 216.576C134.621 216.75 134.508 216.986 134.477 217.283V220.362H133.68V217.322C133.68 216.647 133.351 216.31 132.692 216.31C132.172 216.31 131.816 216.532 131.626 216.975V220.362H130.834V215.723H131.582ZM141.387 220.362C141.342 220.27 141.304 220.108 141.276 219.873C140.908 220.256 140.468 220.448 139.957 220.448C139.5 220.448 139.125 220.319 138.831 220.062C138.54 219.802 138.394 219.473 138.394 219.076C138.394 218.592 138.577 218.218 138.942 217.952C139.31 217.683 139.827 217.549 140.492 217.549H141.263V217.185C141.263 216.908 141.18 216.687 141.014 216.524C140.849 216.359 140.605 216.275 140.282 216.275C140 216.275 139.763 216.347 139.572 216.49C139.38 216.633 139.285 216.806 139.285 217.009H138.488C138.488 216.777 138.57 216.554 138.732 216.34C138.898 216.123 139.121 215.951 139.4 215.825C139.683 215.7 139.993 215.637 140.33 215.637C140.863 215.637 141.282 215.771 141.584 216.04C141.887 216.305 142.044 216.673 142.055 217.142V219.277C142.055 219.703 142.109 220.042 142.218 220.293V220.362H141.387ZM140.072 219.757C140.321 219.757 140.556 219.693 140.779 219.565C141.002 219.436 141.163 219.268 141.263 219.063V218.111H140.642C139.671 218.111 139.186 218.395 139.186 218.964C139.186 219.213 139.269 219.407 139.435 219.547C139.6 219.688 139.813 219.757 140.072 219.757ZM144.046 215.723L144.071 216.305C144.425 215.86 144.888 215.637 145.458 215.637C146.437 215.637 146.931 216.19 146.94 217.296V220.362H146.148V217.292C146.145 216.957 146.068 216.71 145.916 216.55C145.768 216.39 145.536 216.31 145.219 216.31C144.962 216.31 144.736 216.379 144.542 216.516C144.348 216.653 144.197 216.833 144.088 217.056V220.362H143.296V215.723H144.046Z" fill="black"/>
<path d="M114.609 356.882H146.46C155.097 356.882 162.104 349.616 162.104 340.652V282.559H208.869V340.644C208.869 349.608 215.869 356.874 224.513 356.874H256.364V407.686H114.609V356.882Z" fill="#FFD2A0"/>
<path d="M208.869 300.121V342.942C202.444 344.157 195.909 344.682 189.374 344.508C180.192 344.514 171.04 343.449 162.104 341.333V300.121H208.869Z" fill="#D4AF86"/>
<path d="M364.55 471.488C361.627 508.001 362.314 543.747 362.314 580.377H8.65873C8.65873 547.544 6.98542 515.648 4.38415 482.947C2.55011 459.97 3.36849 435.713 14.6139 415.627C26.9114 393.638 50.089 379.713 73.9681 371.766C86.4702 367.603 99.3231 364.844 112.234 362.312C112.989 363.776 113.786 365.239 114.624 366.703C121.842 379.057 132.142 389.32 144.514 396.487C156.886 403.654 170.905 407.479 185.198 407.586C199.49 407.695 213.566 404.081 226.044 397.101C238.522 390.122 248.975 380.014 256.378 367.771C257.518 365.893 258.583 363.966 259.571 361.99C294.754 367.976 337.661 382.962 355.205 412.517C365.522 429.874 366.158 451.306 364.55 471.488Z" fill="#B83527"/>
<path d="M14.6138 434.609C26.9114 412.62 50.089 398.695 73.9681 390.749C86.4702 386.585 99.3231 383.827 112.234 381.295C112.989 382.758 113.786 384.222 114.624 385.685C121.842 398.038 132.142 408.302 144.514 415.469C156.886 422.636 170.905 426.461 185.198 426.569C199.49 426.676 213.566 423.063 226.044 416.084C238.522 409.104 248.975 398.997 256.378 386.753C257.518 384.875 258.583 382.948 259.571 380.973C294.754 386.958 337.661 401.944 355.205 431.499C361.342 441.839 364.061 453.605 364.915 465.679C365.997 447.027 364.674 427.694 355.205 411.742C337.668 382.187 294.754 367.201 259.571 361.216C258.597 363.167 257.533 365.094 256.378 366.997C248.975 379.24 238.522 389.347 226.044 396.327C213.566 403.306 199.49 406.919 185.198 406.812C170.905 406.704 156.886 402.88 144.514 395.712C132.142 388.545 121.842 378.281 114.624 365.928C113.786 364.494 112.989 363.031 112.234 361.538C99.3231 364.07 86.4702 366.828 73.9681 370.992C50.0743 378.939 26.8968 392.863 14.6138 414.852C4.53027 432.86 2.82776 454.19 3.89457 474.943C4.74948 460.776 7.72336 446.917 14.6138 434.609Z" fill="#8B2E25"/>
<path d="M362.278 579.645H362.314C362.314 571.888 362.314 564.169 362.263 556.478C362.239 564.186 362.243 571.908 362.278 579.645Z" fill="#8B2E25"/>
<path d="M185.852 412.077C169.836 412.077 154.189 407.266 140.934 398.264C127.678 389.263 117.424 376.487 111.496 361.587L118.285 358.88C123.772 372.662 133.331 384.438 145.684 392.631C158.037 400.824 172.593 405.044 187.406 404.726C202.219 404.407 216.582 399.566 228.572 390.85C240.562 382.134 249.608 369.959 254.5 355.953L261.398 358.368C255.914 374.055 245.698 387.648 232.165 397.269C218.632 406.891 202.449 412.066 185.852 412.077Z" fill="#431818"/>
<path d="M365.968 578.913H358.661C358.661 573.138 358.661 567.379 358.661 561.637C358.573 530.267 358.485 500.632 360.948 469.731C362.321 452.513 362.548 430.495 352.084 412.867C343.316 398.137 327.241 385.932 304.217 376.595C280.031 366.782 255.553 363.182 243.116 361.909C241.311 361.726 239.463 361.602 237.512 361.47C228.707 360.877 218.718 360.204 211.207 353.223C200.743 343.476 202.767 317.99 204.397 297.509C204.85 291.779 205.244 286.825 205.244 283.291H212.551C212.551 287.118 212.149 292.204 211.682 298.087C210.337 314.99 208.313 340.528 216.19 347.845C221.795 353.062 229.664 353.589 238.001 354.153C239.93 354.284 241.925 354.416 243.847 354.614C286.132 358.945 338.42 375.534 358.354 409.113C369.87 428.512 369.672 452.001 368.218 470.301C365.785 500.895 365.865 530.384 365.96 561.6C365.96 567.362 365.963 573.132 365.968 578.913Z" fill="#431818"/>
<path d="M12.3122 578.913H5.00526C5.00526 549.175 3.65347 518.303 0.7307 481.76C-2.41859 442.29 5.31945 423.221 11.4134 412.333C25.6766 386.825 52.6684 373.485 72.7917 366.782C87.8147 361.785 103.481 358.733 118.628 355.806C122.435 355.075 126.373 354.343 130.231 353.531C132.548 353.062 135.047 352.748 137.684 352.418C150.603 350.801 158.443 349.111 158.443 339.313V283.291H165.75V339.335C165.75 356.297 149.405 358.36 138.591 359.699C136.084 360.014 133.717 360.306 131.671 360.724C127.784 361.506 123.831 362.275 119.98 363.014C105.059 365.897 89.6341 368.868 75.0641 373.727C56.1538 380.019 30.8645 392.444 17.7412 415.911C6.15975 436.7 6.45934 461.725 8.03763 481.182C10.9604 517.916 12.3122 548.978 12.3122 578.913Z" fill="#431818"/>
<path d="M71.6079 373.275H65.7624V487.821H71.6079V373.275Z" fill="#431818"/>
<path d="M68.5756 514.886C63.7342 514.886 59.0016 513.449 54.9762 510.755C50.9508 508.062 47.8134 504.233 45.9606 499.754C44.108 495.275 43.6232 490.346 44.5677 485.591C45.5122 480.836 47.8436 476.467 51.2668 473.039C54.6902 469.611 59.0518 467.277 63.8001 466.331C68.5484 465.385 73.4705 465.87 77.9431 467.725C82.4156 469.581 86.2386 472.723 88.9283 476.754C91.618 480.785 93.0538 485.525 93.0538 490.373C93.0458 496.872 90.4649 503.103 85.8755 507.698C81.2867 512.293 75.0649 514.879 68.5756 514.886ZM68.5756 471.713C64.8904 471.713 61.2879 472.808 58.2238 474.858C55.1597 476.909 52.7715 479.823 51.3613 483.232C49.9509 486.642 49.5819 490.394 50.3009 494.013C51.0199 497.633 52.7944 500.957 55.4003 503.567C58.0061 506.177 61.3262 507.954 64.9405 508.673C68.5549 509.393 72.3013 509.024 75.7057 507.612C79.1107 506.199 82.0203 503.808 84.0677 500.739C86.1151 497.671 87.2082 494.064 87.2082 490.373C87.2024 485.426 85.2376 480.683 81.7441 477.185C78.2514 473.688 73.5158 471.719 68.5756 471.713Z" fill="#431818"/>
<path d="M68.9409 524.764C62.0763 524.764 55.3659 522.727 49.6582 518.907C43.9505 515.088 39.5019 509.659 36.8749 503.308C34.248 496.957 33.5607 489.969 34.8999 483.227C36.2391 476.484 39.5447 470.291 44.3987 465.43C49.2527 460.569 55.437 457.259 62.1697 455.917C68.9024 454.576 75.881 455.265 82.2227 457.895C88.5651 460.526 93.9854 464.981 97.7996 470.697C101.613 476.413 103.649 483.133 103.649 490.007C103.639 499.222 99.9793 508.057 93.4725 514.574C86.9656 521.09 78.1433 524.755 68.9409 524.764ZM68.9409 461.103C63.2324 461.103 57.6522 462.799 52.9058 465.974C48.1594 469.151 44.4601 473.665 42.2756 478.946C40.091 484.228 39.5195 490.039 40.6331 495.646C41.7468 501.253 44.4956 506.403 48.5321 510.445C52.5686 514.487 57.7114 517.24 63.3101 518.355C68.9089 519.471 74.7119 518.898 79.9861 516.711C85.2602 514.523 89.7679 510.818 92.9391 506.065C96.1103 501.312 97.8033 495.724 97.8033 490.007C97.7953 482.344 94.7519 474.997 89.3411 469.578C83.9303 464.159 76.5935 461.111 68.9409 461.103Z" fill="#431818"/>
<path d="M129.822 300.686L113.93 314.699C107.156 320.67 95.5747 316.44 95.5747 307.996H32.735C22.2569 307.996 16.8571 296.954 24.0471 290.237C42.0295 273.407 52.0473 251.213 52.0473 228.112V124.688C52.0619 58.5393 113.433 3.5418 188.438 3.65888C263.444 3.77596 324.347 57.4563 324.347 123.664V266.755C324.347 299.456 283.998 319.748 252.067 303.1L251.446 302.779" fill="#F3B227"/>
<path d="M187.708 2.92731C171.899 2.88414 156.183 5.354 141.148 10.2447C153.034 7.30344 165.235 5.82901 177.478 5.85427C252.542 5.97134 313.387 59.6517 313.387 125.859V268.951C313.387 286.835 301.316 301.008 285.153 307.455C306.175 303.65 323.617 287.522 323.617 266.024V122.933C323.587 56.7247 262.779 3.04439 187.708 2.92731Z" fill="#E8A42A"/>
<path opacity="0.5" d="M37.1338 307.373C54.1882 290.748 63.658 269.118 63.658 246.639V143.244C63.658 77.1172 125.036 22.0976 200.035 22.2147C250.788 22.2952 295.025 46.8596 318.348 83.2272C299.738 36.586 249.386 3.13093 190.148 3.03581C115.143 2.92605 53.7717 57.9455 53.7717 124.073V227.489C53.7717 250.59 43.7539 272.813 25.7716 289.614C18.5815 296.331 23.9814 307.373 34.4595 307.373H37.1338Z" fill="#F1D427"/>
<path d="M106.374 321.16C104.134 321.158 101.919 320.68 99.8785 319.755C98.1409 319.007 96.5823 317.898 95.305 316.502C94.0278 315.105 93.0611 313.453 92.4692 311.655H32.7497C26.0711 311.655 20.3279 307.959 18.0554 302.237C17.0716 299.726 16.8811 296.974 17.5097 294.351C18.1382 291.729 19.5555 289.363 21.5701 287.573C38.8802 271.402 48.4084 250.254 48.4084 228.119V124.688C48.4084 94.2991 61.0567 64.9125 84.0297 41.9432C110.693 15.2787 148.66 0 188.205 0H188.446C225.645 0.058539 260.624 12.8932 286.943 36.1332C313.402 59.4976 327.972 90.5818 327.972 123.664V266.755C327.972 282.158 319.81 295.959 305.569 304.608C297.278 309.594 287.851 312.371 278.185 312.675C268.519 312.978 258.936 310.798 250.35 306.342L249.729 306.02L253.097 299.53L253.719 299.852C261.191 303.731 269.53 305.63 277.942 305.367C286.355 305.105 294.56 302.689 301.776 298.352C313.774 291.034 320.657 279.539 320.657 266.755V123.664C320.657 59.6293 261.34 7.43446 188.402 7.31738C150.742 7.23689 114.551 21.7692 89.1884 47.1239C67.6037 68.7102 55.7154 96.2528 55.7154 124.688V228.112C55.7154 252.333 45.3614 275.346 26.5534 292.915C24.5513 294.788 23.9302 297.21 24.8509 299.552C25.7204 301.747 28.3071 304.337 32.7497 304.337H99.2428V307.996C99.2428 311.091 101.807 312.584 102.896 313.118C104.292 313.771 105.845 314.012 107.372 313.811C108.9 313.61 110.338 312.976 111.518 311.984L127.411 297.971L132.241 303.466L116.348 317.479C113.582 319.881 110.035 321.189 106.374 321.16Z" fill="#431818"/>
<path d="M115.201 87.5947C119.104 86.421 123.142 85.7566 127.214 85.619C130.528 85.5012 133.846 85.7464 137.107 86.3508C142.675 87.4045 145.817 89.0216 145.737 89.2045C145.634 89.5046 142.368 88.3557 136.903 87.6606C129.804 86.7115 122.585 87.2991 115.733 89.3831C108.881 91.4671 102.554 94.9999 97.1822 99.7416C93.0318 103.364 90.9494 106.137 90.7009 105.947C90.4525 105.756 92.25 102.749 96.2907 98.7684C98.664 96.448 101.283 94.394 104.102 92.6437C107.569 90.4887 111.299 88.7911 115.201 87.5947Z" fill="#D49C43"/>
<path d="M130.874 82.1089C135.98 82.4747 140.999 83.6199 145.759 85.5041C149.412 86.9676 151.407 88.3433 151.305 88.5482C151.202 88.753 148.966 87.8896 145.32 86.7481C140.567 85.2817 135.666 84.3516 130.706 83.9748C127.988 83.7772 125.259 83.7553 122.537 83.9089C120.331 84.0033 118.134 84.2477 115.961 84.6407C114.511 84.9319 113.11 85.4244 111.796 86.1042C110.875 86.5944 110.386 86.953 110.284 86.8359C110.181 86.7188 110.525 86.2139 111.394 85.4822C112.658 84.5141 114.097 83.8006 115.632 83.3821C117.857 82.7711 120.135 82.3686 122.435 82.182C125.242 81.9245 128.064 81.9003 130.874 82.1089Z" fill="#D49C43"/>
<path d="M274.646 98.4481C278.439 102.01 281.599 106.191 283.991 110.815C285.818 114.334 286.563 116.668 286.351 116.771C286.139 116.873 284.934 114.759 282.851 111.48C280.2 107.204 277.006 103.289 273.352 99.8311C269.692 96.4293 265.406 93.7723 260.733 92.0089C257.131 90.6844 254.712 90.399 254.742 90.099C254.771 89.799 257.255 89.6966 261.135 90.7503C266.181 92.2167 270.809 94.8539 274.646 98.4481Z" fill="#D49C43"/>
<path d="M288.171 112.125C288.799 114.28 289.251 116.482 289.522 118.71C289.772 120.518 289.926 122.338 289.983 124.162C290.063 127.301 289.654 129.218 289.413 129.196C289.172 129.174 289.077 127.279 288.682 124.264C288.485 122.757 288.193 120.964 287.835 118.974C287.471 116.835 286.984 114.719 286.373 112.637C285.235 108.907 283.344 105.451 280.82 102.481C278.884 100.176 277.393 98.9755 277.561 98.7413C277.729 98.5072 279.483 99.3853 281.777 101.573C283.118 102.864 284.302 104.308 285.306 105.876C286.545 107.816 287.509 109.919 288.171 112.125Z" fill="#D49C43"/>
<path d="M294.192 232.034C294.192 283.834 245.52 329.026 185.479 329.026C125.438 329.026 76.7666 283.834 76.7666 232.034C76.7666 208.999 60.7791 174.629 76.7666 143.552C96.6999 104.77 152.138 71.1099 185.479 71.1099C218.36 71.1099 269.312 101.199 289.238 139.33C305.693 170.787 294.192 208.604 294.192 232.034Z" fill="#FFD2A0"/>
<path d="M146.621 210.14C152.803 210.14 157.815 205.121 157.815 198.929C157.815 192.738 152.803 187.719 146.621 187.719C140.439 187.719 135.427 192.738 135.427 198.929C135.427 205.121 140.439 210.14 146.621 210.14Z" fill="#431818"/>
<path d="M142.741 197.781C144.254 197.781 145.481 196.552 145.481 195.036C145.481 193.521 144.254 192.292 142.741 192.292C141.228 192.292 140.001 193.521 140.001 195.036C140.001 196.552 141.228 197.781 142.741 197.781Z" fill="white"/>
<path d="M221.363 210.14C227.546 210.14 232.558 205.121 232.558 198.929C232.558 192.738 227.546 187.719 221.363 187.719C215.181 187.719 210.169 192.738 210.169 198.929C210.169 205.121 215.181 210.14 221.363 210.14Z" fill="#431818"/>
<path d="M217.476 197.781C218.989 197.781 220.216 196.552 220.216 195.036C220.216 193.521 218.989 192.292 217.476 192.292C215.963 192.292 214.736 193.521 214.736 195.036C214.736 196.552 215.963 197.781 217.476 197.781Z" fill="white"/>
<path d="M197.47 243.077H170.288V247.467H197.47V243.077Z" fill="#431818"/>
<path d="M296.764 173.114C296.596 178.551 296.208 183.892 295.741 189.08C252.549 177.812 205.968 111.516 205.968 111.516C205.968 144.525 110.21 177.929 71.228 190.156C70.2562 184.192 69.372 178.017 68.8605 171.716C106.17 160.148 205.968 126.041 205.968 92.3447C205.968 92.3447 253.185 159.54 296.618 170.121C296.661 171.116 296.727 172.111 296.764 173.114Z" fill="#D4AF86"/>
<path d="M185.479 334.543C155.747 334.563 127.206 322.838 106.053 301.915C85.1185 281.368 73.1132 253.525 73.1132 225.514C73.1132 218.138 71.6517 209.358 70.0296 200.05C66.3761 178.756 61.8823 152.26 73.4347 127.827C82.9337 107.741 101.354 87.1134 123.969 71.2274C145.561 56.0658 168.542 47.0142 185.45 47.0142C202.358 47.0142 223.855 55.0633 244.263 69.1785C265.753 84.0108 282.888 103.19 292.489 123.188C305.021 149.223 301.988 178.859 299.497 202.677C298.634 211.033 297.816 218.936 297.816 225.514C297.816 253.525 285.811 281.368 264.876 301.915C243.73 322.831 215.202 334.555 185.479 334.543ZM185.479 54.3315C170.018 54.3315 148.601 62.8856 128.193 77.2203C106.557 92.3966 89.0204 111.956 80.0475 130.981C69.4816 153.328 73.6027 177.505 77.2416 198.842C78.8783 208.458 80.4274 217.538 80.4274 225.536C80.4274 280.665 128.536 327.248 185.486 327.248C242.437 327.248 290.546 280.673 290.546 225.536C290.546 218.577 291.379 210.499 292.263 201.945C294.63 179.049 297.575 150.555 285.942 126.393C276.86 107.522 260.587 89.3525 240.128 75.23C221.188 62.1319 200.751 54.3315 185.457 54.3315H185.479Z" fill="#431818"/>
<path d="M68.6851 105.108C68.6851 105.108 72.2582 155.21 56.2634 181.809C56.2634 181.809 207.225 139.749 207.225 98.3031C207.225 98.3031 262.86 177.477 308.901 177.477V124.28L274.346 76.029L234.699 51.8813L191.851 45.0762L170.748 46.3128L145.81 50.052L116.399 63.0403L88.2604 77.2729L68.6851 105.108Z" fill="#F3B227"/>
<path d="M63.8991 184.215C62.9424 184.209 62.0038 183.953 61.177 183.47C60.3502 182.987 59.6643 182.297 59.1873 181.466C58.7105 180.636 58.4594 179.694 58.4592 178.736C58.459 177.777 58.7097 176.836 59.1862 176.005C65.5943 164.824 80.179 135.635 77.322 106.073L84.6289 105.341C87.3909 133.879 75.1299 161.766 67.7718 175.588C83.3648 170.744 114.536 160.441 143.457 147.131C192.954 124.359 203.374 107.983 203.374 98.2507V86.4111L210.052 96.2384C210.578 97.014 263.218 173.803 305.24 173.803V181.12C266.798 181.12 223.278 126.723 208.854 107.149C206.012 114.151 199.859 121.344 190.455 128.625C179.948 136.769 165.166 145.243 146.533 153.819C114.171 168.702 79.1268 179.861 65.5578 183.966C65.0209 184.133 64.4615 184.217 63.8991 184.215Z" fill="#431818"/>
<path d="M248.56 131.67C252.213 135.248 255.94 138.446 259.403 141.241C261.164 142.602 262.808 143.926 264.431 145.068C265.234 145.646 265.994 146.231 266.747 146.751L268.939 148.214C274.521 151.99 278.168 154.068 278.029 154.317C277.97 154.434 276.991 154.032 275.281 153.212L273.856 152.517C273.345 152.253 272.797 151.946 272.205 151.617C271.029 150.958 269.662 150.234 268.23 149.319L265.972 147.936C265.183 147.439 264.394 146.882 263.568 146.326C261.895 145.229 260.185 143.934 258.38 142.594C254.509 139.61 250.808 136.41 247.296 133.009C243.814 129.574 240.528 125.947 237.453 122.142C236.072 120.364 234.735 118.689 233.603 117.02C233.025 116.201 232.448 115.425 231.937 114.649L230.475 112.41C229.525 110.998 228.773 109.652 228.086 108.488C227.75 107.903 227.428 107.361 227.151 106.856L226.42 105.451C225.558 103.754 225.141 102.788 225.251 102.722C225.514 102.576 227.662 106.176 231.564 111.671L233.106 113.815C233.646 114.547 234.246 115.279 234.837 116.098C236.014 117.686 237.373 119.311 238.776 121.037C241.618 124.447 244.899 128.055 248.56 131.67Z" fill="#7B5151"/>
<path d="M263.641 136.834C272.585 143.53 280.893 147.357 280.652 147.876C280.557 148.096 278.35 147.422 274.974 145.842C273.287 145.059 271.321 144.02 269.202 142.776C267.083 141.532 264.818 140.025 262.531 138.334C260.244 136.644 258.147 134.888 256.356 133.212C254.566 131.536 252.988 129.956 251.753 128.566C249.269 125.792 247.983 123.868 248.165 123.714C248.589 123.356 254.647 130.205 263.641 136.834Z" fill="#7B5151"/>
<path d="M272.549 43.6642C276.703 47.1244 280.535 50.9549 283.999 55.1086C286.831 58.5139 289.323 62.1903 291.437 66.0846C292.868 68.693 294.067 71.4233 295.017 74.2438C295.668 76.2488 295.887 77.3903 295.748 77.4269C295.434 77.5439 294.06 73.0946 290.261 66.7358C288.028 63.03 285.483 59.522 282.654 56.2501C279.183 52.2442 275.392 48.5269 271.321 45.135C262.633 37.9054 253.784 32.5564 247.486 28.6562C241.187 24.7561 237.176 22.3706 237.307 22.1364C237.439 21.9023 241.589 23.9292 248.143 27.5147C254.698 31.1002 263.693 36.3175 272.549 43.6642Z" fill="#7B5151"/>
<path d="M282.201 61.0913C284.175 63.7118 285.938 66.4839 287.477 69.3819C288.149 70.7356 288.806 72.0161 289.303 73.26C289.559 73.882 289.829 74.4674 290.034 75.0528L290.64 76.7431C292.102 81.0677 292.467 83.8775 292.255 83.9288C292.043 83.98 291.159 81.3238 289.406 77.2187L288.675 75.6162C288.434 75.0601 288.134 74.4967 287.849 73.9113C287.301 72.7186 286.607 71.5039 285.913 70.2087C282.787 64.6421 278.899 59.5412 274.361 55.0545C273.294 54.0447 272.307 53.0495 271.306 52.208C270.809 51.7836 270.349 51.3445 269.845 50.964L268.486 49.8664C264.993 47.0931 262.64 45.6077 262.779 45.3443C262.918 45.0809 265.497 46.237 269.275 48.7981L270.736 49.8225C271.241 50.1811 271.737 50.5982 272.271 51.0153C273.345 51.8275 274.397 52.8007 275.522 53.8032C277.937 56.052 280.17 58.489 282.201 61.0913Z" fill="#7B5151"/>
<path d="M83.2259 61.575C85.8353 58.7299 88.6433 56.0743 91.6289 53.6283C93.0318 52.5307 94.3544 51.477 95.6623 50.5989C96.3127 50.1526 96.9264 49.6989 97.5475 49.3038L99.3743 48.1842C103.978 45.4036 107.09 44.2255 107.185 44.4158C107.28 44.606 104.438 46.2744 100.098 49.2891L98.3732 50.4892C97.7887 50.9063 97.2041 51.3819 96.583 51.8429C95.3335 52.7576 94.0767 53.8405 92.7323 54.9455C86.9773 59.8595 81.8771 65.4937 77.5558 71.7096C76.5839 73.1731 75.634 74.5122 74.8376 75.8513C74.4357 76.5172 74.0192 77.1392 73.6612 77.7684L72.6382 79.5685C70.0662 84.1492 68.7582 87.1932 68.4806 87.0762C68.2029 86.9591 69.1528 83.7833 71.4691 78.9319L72.4043 77.0367C72.7331 76.3781 73.1351 75.7269 73.5077 75.0317C74.2384 73.6341 75.181 72.2218 76.1309 70.7144C78.2762 67.5033 80.6473 64.4491 83.2259 61.575Z" fill="#7B5151"/>
<path d="M100.39 55.6132C102.079 54.5456 103.848 53.6087 105.68 52.8106C107.176 52.168 108.717 51.6373 110.291 51.2227C112.98 50.5276 114.675 50.491 114.748 50.6959C114.88 51.252 108.267 52.7374 101.398 57.1864C94.5298 61.6354 90.3429 66.9185 89.8753 66.5892C89.6853 66.4502 90.4671 64.9135 92.2281 62.7622C93.2671 61.5067 94.3983 60.3303 95.6112 59.2426C97.1091 57.9125 98.7071 56.6991 100.39 55.6132Z" fill="#7B5151"/>
<path d="M107.324 155.574C114.631 152.332 121.105 149.179 125.803 146.866C130.502 144.554 133.417 143.12 133.549 143.354C133.68 143.588 130.984 145.41 126.425 148.03C120.469 151.419 114.348 154.506 108.084 157.279C101.826 160.07 95.4314 162.544 88.9253 164.692C83.9274 166.316 80.7562 167.077 80.6831 166.843C80.6101 166.609 83.6059 165.379 88.4796 163.448C93.3533 161.516 100.032 158.786 107.324 155.574Z" fill="#7B5151"/>
<path d="M118.672 144.292C125.628 140.729 131.094 137.421 131.371 137.86C131.649 138.299 126.607 142.324 119.527 145.953C112.446 149.583 106.214 151.353 106.06 150.885C105.907 150.417 111.73 147.885 118.672 144.292Z" fill="#7B5151"/>
<path d="M301.323 280.05C302.628 276.75 303.562 273.313 304.107 269.805C304.559 266.898 304.842 263.965 304.955 261.025C305.167 256.005 305.094 252.858 305.379 252.844C305.664 252.829 306.146 255.939 306.277 261.039C306.35 264.039 306.195 267.041 305.81 270.018C305.344 273.695 304.419 277.299 303.055 280.745C301.646 284.205 299.67 287.405 297.209 290.214C295.202 292.511 292.827 294.458 290.18 295.972C288.406 296.986 286.489 297.726 284.495 298.168C283.085 298.46 282.303 298.468 282.267 298.358C282.23 298.248 282.997 297.963 284.291 297.472C286.118 296.779 287.865 295.888 289.501 294.816C291.908 293.226 294.068 291.288 295.909 289.065C298.16 286.352 299.985 283.313 301.323 280.05Z" fill="#7B5151"/>
<path d="M309.047 270.547C309.745 267.351 310.233 264.111 310.508 260.851C310.603 259.344 310.72 257.924 310.72 256.571C310.72 255.898 310.764 255.246 310.72 254.624L310.676 252.824C310.523 248.244 310.091 245.404 310.384 245.353C310.676 245.302 311.494 248.075 311.991 252.736L312.159 254.566C312.21 255.202 312.211 255.868 312.24 256.556C312.313 257.939 312.24 259.41 312.196 260.947C311.851 267.692 310.325 274.325 307.688 280.543C307.052 281.962 306.467 283.316 305.802 284.523C305.474 285.131 305.189 285.731 304.86 286.279L303.91 287.853C301.425 291.826 299.401 293.926 299.241 293.787C299.08 293.648 300.629 291.248 302.77 287.201L303.596 285.606C303.881 285.05 304.129 284.45 304.421 283.843C305.013 282.635 305.532 281.296 306.102 279.899C307.287 276.849 308.271 273.725 309.047 270.547Z" fill="#7B5151"/>
<path d="M205.383 179.612C207.999 172.639 215.708 168.914 222.818 168.761C232.068 168.563 240.515 173.429 247.902 178.507C251.402 180.915 254.69 175.207 251.22 172.822C242.108 166.558 231.301 161.012 219.902 162.409C210.644 163.543 202.365 168.995 199.041 177.864C197.579 181.837 203.907 183.549 205.383 179.612Z" fill="#431818"/>
<path d="M172.356 180.791C169.017 171.893 160.76 166.471 151.495 165.336C140.096 163.939 129.289 169.485 120.177 175.749C116.706 178.135 119.994 183.842 123.494 181.435C130.882 176.356 139.321 171.49 148.579 171.688C155.689 171.842 163.39 175.566 166.013 182.54C167.475 186.469 173.847 184.735 172.356 180.791Z" fill="#431818"/>
<path d="M187.679 191.092H183.294V229.874H187.679V191.092Z" fill="#431818"/>
<path d="M214.21 265.729C217.206 265.729 218.777 270.478 216.804 273.522C208.569 286.24 196.447 294.267 182.929 294.267C169.411 294.267 157.296 286.218 149.054 273.522C147.081 270.478 148.645 265.729 151.648 265.729H214.21Z" fill="#C66F66"/>
<path d="M185.121 297.196C171.128 297.196 157.888 289.147 148.798 275.113C147.975 273.785 147.513 272.265 147.459 270.705C147.406 269.143 147.761 267.595 148.491 266.215C148.988 265.21 149.75 264.36 150.694 263.758C151.638 263.156 152.729 262.824 153.847 262.797H216.409C217.528 262.824 218.619 263.156 219.563 263.758C220.507 264.36 221.268 265.21 221.765 266.215C222.495 267.595 222.851 269.143 222.798 270.705C222.744 272.265 222.282 273.785 221.458 275.113C212.361 289.155 199.121 297.196 185.121 297.196ZM153.891 268.659C153.637 268.921 153.465 269.251 153.394 269.61C153.289 269.997 153.262 270.402 153.315 270.8C153.367 271.198 153.499 271.583 153.701 271.929C161.695 284.267 173.145 291.342 185.121 291.342C197.097 291.342 208.554 284.267 216.541 271.929C216.743 271.583 216.875 271.198 216.927 270.8C216.98 270.402 216.953 269.997 216.848 269.61C216.778 269.251 216.605 268.921 216.351 268.659H153.891Z" fill="#431818"/>
<path d="M296.552 455.25H234.443C229.601 455.25 225.675 459.181 225.675 464.03V494.763C225.675 499.613 229.601 503.544 234.443 503.544H296.552C301.394 503.544 305.32 499.613 305.32 494.763V464.03C305.32 459.181 301.394 455.25 296.552 455.25Z" fill="white"/>
<path d="M296.552 507.203H234.443C231.148 507.203 227.989 505.892 225.659 503.56C223.33 501.227 222.021 498.063 222.021 494.763V464.03C222.021 460.732 223.33 457.568 225.659 455.235C227.989 452.902 231.148 451.591 234.443 451.591H296.552C299.847 451.591 303.006 452.902 305.335 455.235C307.665 457.568 308.974 460.732 308.974 464.03V494.763C308.974 498.063 307.665 501.227 305.335 503.56C303.006 505.892 299.847 507.203 296.552 507.203ZM234.443 458.908C233.086 458.908 231.785 459.448 230.826 460.409C229.867 461.369 229.328 462.672 229.328 464.03V494.763C229.328 496.122 229.867 497.425 230.826 498.385C231.785 499.346 233.086 499.886 234.443 499.886H296.552C297.908 499.886 299.209 499.346 300.169 498.385C301.127 497.425 301.667 496.122 301.667 494.763V464.03C301.667 462.672 301.127 461.369 300.169 460.409C299.209 459.448 297.908 458.908 296.552 458.908H234.443Z" fill="#431818"/>
<path d="M286.439 365.794H280.593V455.249H286.439V365.794Z" fill="#431818"/>
<path d="M121.916 244.509C134.83 244.509 145.298 240.25 145.298 234.996C145.298 229.743 134.83 225.483 121.916 225.483C109.003 225.483 98.534 229.743 98.534 234.996C98.534 240.25 109.003 244.509 121.916 244.509Z" fill="#FFB2B2"/>
<path d="M248.326 244.509C261.24 244.509 271.708 240.25 271.708 234.996C271.708 229.743 261.24 225.483 248.326 225.483C235.413 225.483 224.944 229.743 224.944 234.996C224.944 240.25 235.413 244.509 248.326 244.509Z" fill="#FFB2B2"/>
<path d="M160.752 15.4983C165.917 14.3344 171.169 13.6002 176.455 13.3031C178.896 13.2299 181.205 13.1275 183.375 13.2445C184.456 13.2884 185.501 13.2884 186.502 13.3763L189.381 13.647C191.215 13.786 192.852 14.1153 194.291 14.3787C195.022 14.5104 195.68 14.6202 196.286 14.7519L197.945 15.1836C199.925 15.7324 200.992 16.1495 200.941 16.4056C200.889 16.6618 199.742 16.7203 197.726 16.6252L196.052 16.5227L194.057 16.4569C192.596 16.4203 191.018 16.2813 189.228 16.3105H186.422C185.45 16.3105 184.434 16.3691 183.382 16.3983C181.285 16.3983 179.056 16.6325 176.704 16.7935C166.526 17.7075 156.527 20.05 147.001 23.7523C144.809 24.645 142.726 25.4426 140.841 26.3646C139.891 26.811 138.949 27.1988 138.079 27.6378L135.58 28.9111C133.958 29.6794 132.577 30.5209 131.313 31.1868L129.559 32.1307L128.098 32.9649C126.33 33.9527 125.27 34.4284 125.117 34.2015C124.963 33.9747 125.73 33.1478 127.265 31.7795L128.558 30.6599C129.04 30.2648 129.596 29.8696 130.18 29.4379C131.364 28.5818 132.687 27.5647 134.265 26.628L136.72 25.106C137.582 24.5865 138.518 24.1182 139.467 23.5986C141.36 22.5303 143.479 21.5937 145.693 20.5839C150.564 18.4749 155.601 16.7739 160.752 15.4983Z" fill="white"/>
</g>
</g>
<defs>
<clipPath id="clip0_61_5738">
<rect width="369" height="579" fill="white"/>
</clipPath>
</defs>
</svg>
